<?xml version="1.0" encoding="utf-8"?>
<!-- Generator: Adobe Illustrator 18.1.1, SVG Export Plug-In . SVG Version: 6.00 Build 0)  -->
<svg version="1.1" id="Layer_1" xmlns="http://www.w3.org/2000/svg" xmlns:xlink="http://www.w3.org/1999/xlink" x="0px" y="0px"
	 viewBox="-83 185 32 32" enable-background="new -83 185 32 32" xml:space="preserve">
<g>
	
		<radialGradient id="SVGID_1_" cx="-146.1452" cy="-260.6774" r="15.997" gradientTransform="matrix(0 -1.982 -1.8439 0 -555.1502 -70.2027)" gradientUnits="userSpaceOnUse">
		<stop  offset="0" style="stop-color:#FFDD55"/>
		<stop  offset="0.1" style="stop-color:#FFDD55"/>
		<stop  offset="0.5" style="stop-color:#FF543E"/>
		<stop  offset="1" style="stop-color:#C837AB"/>
	</radialGradient>
	<path fill="url(#SVGID_1_)" d="M-67,185c-6.7,0-8.6,0-9,0c-1.4,0.1-2.2,0.3-3.2,0.8c-0.7,0.4-1.3,0.8-1.8,1.3
		c-1,1.1-1.6,2.4-1.9,3.9c-0.1,0.7-0.1,0.9-0.1,4.7c0,1.3,0,3,0,5.2c0,6.7,0,8.6,0,9c0.1,1.3,0.3,2.2,0.8,3.1
		c0.8,1.8,2.5,3.1,4.4,3.6c0.7,0.2,1.4,0.3,2.3,0.3c0.4,0,4.4,0,8.5,0s8.1,0,8.5,0c1.1-0.1,1.7-0.1,2.4-0.3c1.9-0.5,3.5-1.8,4.4-3.6
		c0.4-0.9,0.7-1.8,0.8-3c0-0.3,0-4.7,0-9.1c0-4.4,0-8.8,0-9.1c-0.1-1.3-0.3-2.1-0.8-3.1c-0.4-0.7-0.8-1.3-1.4-1.9
		c-1.1-1-2.4-1.6-3.9-1.8c-0.7-0.1-0.9-0.1-4.7-0.1H-67z"/>
	
		<radialGradient id="SVGID_2_" cx="119.2808" cy="-27.5927" r="15.997" gradientTransform="matrix(0.1739 0.8687 3.5818 -0.7172 -10.2635 63.8929)" gradientUnits="userSpaceOnUse">
		<stop  offset="0" style="stop-color:#3771C8"/>
		<stop  offset="0.128" style="stop-color:#3771C8"/>
		<stop  offset="1" style="stop-color:#6600FF;stop-opacity:0"/>
	</radialGradient>
	<path fill="url(#SVGID_2_)" d="M-67,185c-6.7,0-8.6,0-9,0c-1.4,0.1-2.2,0.3-3.2,0.8c-0.7,0.4-1.3,0.8-1.8,1.3
		c-1,1.1-1.6,2.4-1.9,3.9c-0.1,0.7-0.1,0.9-0.1,4.7c0,1.3,0,3,0,5.2c0,6.7,0,8.6,0,9c0.1,1.3,0.3,2.2,0.8,3.1
		c0.8,1.8,2.5,3.1,4.4,3.6c0.7,0.2,1.4,0.3,2.3,0.3c0.4,0,4.4,0,8.5,0s8.1,0,8.5,0c1.1-0.1,1.7-0.1,2.4-0.3c1.9-0.5,3.5-1.8,4.4-3.6
		c0.4-0.9,0.7-1.8,0.8-3c0-0.3,0-4.7,0-9.1c0-4.4,0-8.8,0-9.1c-0.1-1.3-0.3-2.1-0.8-3.1c-0.4-0.7-0.8-1.3-1.4-1.9
		c-1.1-1-2.4-1.6-3.9-1.8c-0.7-0.1-0.9-0.1-4.7-0.1H-67z"/>
	<path fill="#FFFFFF" d="M-67,189.2c-3.2,0-3.6,0-4.9,0.1c-1.3,0.1-2.1,0.3-2.9,0.5c-0.8,0.3-1.4,0.7-2.1,1.4
		c-0.7,0.7-1.1,1.3-1.4,2.1c-0.3,0.8-0.5,1.6-0.5,2.9c-0.1,1.3-0.1,1.7-0.1,4.9c0,3.2,0,3.6,0.1,4.9c0.1,1.3,0.3,2.1,0.5,2.9
		c0.3,0.8,0.7,1.4,1.4,2.1c0.7,0.7,1.3,1.1,2.1,1.4c0.8,0.3,1.6,0.5,2.9,0.5c1.3,0.1,1.7,0.1,4.9,0.1c3.2,0,3.6,0,4.9-0.1
		c1.3-0.1,2.1-0.3,2.9-0.5c0.8-0.3,1.4-0.7,2.1-1.4c0.7-0.7,1.1-1.3,1.4-2.1c0.3-0.8,0.5-1.6,0.5-2.9c0.1-1.3,0.1-1.7,0.1-4.9
		c0-3.2,0-3.6-0.1-4.9c-0.1-1.3-0.3-2.1-0.5-2.9c-0.3-0.8-0.7-1.4-1.4-2.1c-0.7-0.7-1.3-1.1-2.1-1.4c-0.8-0.3-1.6-0.5-2.9-0.5
		C-63.4,189.2-63.8,189.2-67,189.2L-67,189.2z M-68,191.3c0.3,0,0.7,0,1.1,0c3.2,0,3.5,0,4.8,0.1c1.2,0.1,1.8,0.2,2.2,0.4
		c0.6,0.2,0.9,0.5,1.4,0.9c0.4,0.4,0.7,0.8,0.9,1.4c0.2,0.4,0.4,1,0.4,2.2c0.1,1.2,0.1,1.6,0.1,4.8s0,3.5-0.1,4.8
		c-0.1,1.2-0.2,1.8-0.4,2.2c-0.2,0.6-0.5,0.9-0.9,1.4c-0.4,0.4-0.8,0.7-1.4,0.9c-0.4,0.2-1,0.4-2.2,0.4c-1.2,0.1-1.6,0.1-4.8,0.1
		c-3.2,0-3.5,0-4.8-0.1c-1.2-0.1-1.8-0.2-2.2-0.4c-0.6-0.2-0.9-0.5-1.4-0.9c-0.4-0.4-0.7-0.8-0.9-1.4c-0.2-0.4-0.4-1-0.4-2.2
		c-0.1-1.2-0.1-1.6-0.1-4.8c0-3.2,0-3.5,0.1-4.8c0.1-1.2,0.2-1.8,0.4-2.2c0.2-0.6,0.5-0.9,0.9-1.4c0.4-0.4,0.8-0.7,1.4-0.9
		c0.4-0.2,1-0.4,2.2-0.4C-70.7,191.3-70.3,191.3-68,191.3L-68,191.3z M-60.7,193.3c-0.8,0-1.4,0.6-1.4,1.4c0,0.8,0.6,1.4,1.4,1.4
		c0.8,0,1.4-0.6,1.4-1.4S-59.9,193.3-60.7,193.3L-60.7,193.3z M-67,194.9c-3.4,0-6.1,2.7-6.1,6.1s2.7,6.1,6.1,6.1
		c3.4,0,6.1-2.7,6.1-6.1S-63.6,194.9-67,194.9L-67,194.9z M-67,197.1c2.2,0,3.9,1.8,3.9,3.9c0,2.2-1.8,3.9-3.9,3.9
		c-2.2,0-3.9-1.8-3.9-3.9C-70.9,198.8-69.2,197.1-67,197.1z"/>
</g>
</svg>
