<?xml version="1.0" encoding="utf-8"?>
<!-- Generator: Adobe Illustrator 18.1.1, SVG Export Plug-In . SVG Version: 6.00 Build 0)  -->
<svg version="1.1" id="Capa_1" xmlns="http://www.w3.org/2000/svg" xmlns:xlink="http://www.w3.org/1999/xlink" x="0px" y="0px"
	 viewBox="-101 365 32 32" enable-background="new -101 365 32 32" xml:space="preserve">
<g>
	<g>
		<path d="M-89.7,377.7c0,0,5.3,0,5.3,0c1.2,0,2.2-0.9,2.2-2.1c0-1.2-1-2.4-2.2-2.4l-5.3,0c-1.2,0-2.3,1-2.3,2.2
			C-92,376.7-91,377.7-89.7,377.7z"/>
		<path d="M-79.8,383.5h-10.5c-1.2,0-2.2,1-2.2,2.2c0,1.2,1,2.2,2.2,2.2h10.5c1.2,0,2.2-1,2.2-2.2
			C-77.5,384.5-78.5,383.5-79.8,383.5z"/>
		<path d="M-70.7,365h-28.6c-0.9,0-1.7,0.8-1.7,1.7v28.6c0,0.9,0.8,1.7,1.7,1.7h28.6c0.9,0,1.7-0.8,1.7-1.7v-28.6
			C-69,365.8-69.8,365-70.7,365z M-74.3,391.8c-1.4,1.5-3.5,2.3-5.9,2.3h0h-9.4c-0.1,0-0.1,0-0.2,0c-2.7,0-4.8-0.8-6.2-2.3
			c-1.4-1.5-1.9-3.5-1.9-6.4c0-0.2,0-0.4,0-0.6l0-9.9c0.1-2.5,1.2-4,2-4.9c1.3-1.4,3.2-2.1,5.6-2.1l0.1,0l6.2,0l0.1,0
			c4,0.1,6.9,2.9,7,6.8c0.1,1.2,0,2.3-0.2,3.2c1.4,0,3,0.3,4.1,1.7c1,1.2,1,2.6,1,4.6c0,0.4,0,1.4,0,1.4
			C-72.1,388.2-72.9,390.3-74.3,391.8z"/>
	</g>
</g>
</svg>
